Coordinates
version=1
nRows=29
nColumns=38
inDegrees=no

Units are S.I. units (second, meters, Newtons, ...)
If the header above contains a line with 'inDegrees', this indicates whether rotational values are in degrees (yes) or radians (no).

endheader
time	pelvis_tilt	pelvis_list	pelvis_rotation	pelvis_tx	pelvis_ty	pelvis_tz	hip_flexion_r	hip_adduction_r	hip_rotation_r	knee_angle_r	ankle_angle_r	subtalar_angle_r	mtp_angle_r	hip_flexion_l	hip_adduction_l	hip_rotation_l	knee_angle_l	ankle_angle_l	subtalar_angle_l	mtp_angle_l	lumbar_extension	lumbar_bending	lumbar_rotation	arm_flex_r	arm_add_r	arm_rot_r	elbow_flex_r	pro_sup_r	wrist_flex_r	wrist_dev_r	arm_flex_l	arm_add_l	arm_rot_l	elbow_flex_l	pro_sup_l	wrist_flex_l	wrist_dev_l
0.08	-0.054792	0.0528748	0.00713221	1.07824	0.935225	-0.408802	0.541396	-0.0970666	-0.0684203	-2.10571	0.319213	0.128356	0	0.243958	0.000612567	-0.4806	-0.891223	0.637249	0.698134	0	-0.300988	-0.0346142	-0.108338	-0.532864	-0.234306	-0.189717	1.66549	1.67319	0	0	-0.348844	-0.302874	-0.360277	1.99518	1.77368	0	0
0.09	-0.077972	0.0248259	0.00510063	1.07935	0.938298	-0.408916	0.644492	-0.0644298	-0.0748997	-2.07306	0.341418	0.088832	0	0.169637	-0.0204616	-0.504052	-0.808937	0.59545	0.716688	0	-0.269319	-9.80993e-05	-0.13429	-0.594488	-0.23881	-0.205074	1.70963	1.69914	0	0	-0.322213	-0.293765	-0.351888	2.0391	1.76451	0	0
0.1	-0.101596	-0.0030354	0.00192074	1.08076	0.941611	-0.409148	0.737637	-0.0332435	-0.0846153	-2.02605	0.362529	0.0597464	0	0.100764	-0.0409552	-0.522507	-0.72941	0.541563	0.724714	0	-0.237113	0.0354269	-0.154813	-0.658134	-0.238865	-0.22463	1.75404	1.71854	0	0	-0.296329	-0.286418	-0.336121	2.07987	1.75446	0	0
0.11	-0.125621	-0.0305751	-0.00235403	1.08245	0.945149	-0.409502	0.820763	-0.00363309	-0.0975327	-1.96476	0.3826	0.0412524	0	0.0374425	-0.060732	-0.535696	-0.652939	0.475863	0.722175	0	-0.204453	0.0718048	-0.170007	-0.723654	-0.234499	-0.248229	1.79862	1.73131	0	0	-0.271196	-0.280869	-0.313114	2.11747	1.74368	0	0
0.12	-0.149882	-0.0573907	-0.0075728	1.08439	0.94888	-0.409989	0.893646	0.0240578	-0.113542	-1.88931	0.401794	0.0337687	0	-0.0200637	-0.0793913	-0.54284	-0.580454	0.399353	0.709022	0	-0.171629	0.108544	-0.180178	-0.790544	-0.225849	-0.275367	1.84309	1.73728	0	0	-0.246848	-0.277216	-0.28332	2.15181	1.73256	0	0
0.13	-0.174009	-0.0827559	-0.013484	1.08648	0.952745	-0.410618	0.955815	0.0492716	-0.132447	-1.8	0.42041	0.0380056	0	-0.0713976	-0.0962298	-0.542696	-0.513666	0.314052	0.685486	0	-0.139234	0.14471	-0.185876	-0.857771	-0.213261	-0.305079	1.8869	1.73634	0	0	-0.223398	-0.275624	-0.247625	2.18278	1.72164	0	0
0.14	-0.197385	-0.105686	-0.0197698	1.08864	0.956669	-0.411392	1.00652	0.0713695	-0.153975	-1.69723	0.438851	0.054795	0	-0.116272	-0.110308	-0.533856	-0.454962	0.223	0.652346	0	-0.108201	0.178965	-0.187837	-0.923729	-0.197363	-0.335981	1.92919	1.72862	0	0	-0.201082	-0.276272	-0.207335	2.21021	1.7115	0	0
0.15	-0.219152	-0.125124	-0.0260991	1.09073	0.960569	-0.4123	1.04479	0.0898504	-0.177821	-1.58154	0.457509	0.0847864	0	-0.15462	-0.120652	-0.515239	-0.407185	0.130264	0.611092	0	-0.0797712	0.209775	-0.186813	-0.98637	-0.179055	-0.36649	1.96899	1.71475	0	0	-0.180252	-0.279282	-0.164037	2.23385	1.70255	0	0
0.16	-0.238275	-0.140174	-0.0321784	1.09268	0.964357	-0.413313	1.06955	0.104553	-0.20369	-1.45377	0.476646	0.128159	0	-0.186695	-0.126507	-0.486621	-0.373309	0.0406674	0.563917	0	-0.0553672	0.235693	-0.183454	-1.04342	-0.159482	-0.395082	2.00526	1.69598	0	0	-0.161386	-0.284623	-0.119445	2.25339	1.69498	0	0
0.17	-0.253663	-0.150309	-0.0377982	1.09443	0.967956	-0.414384	1.07987	0.115794	-0.231272	-1.31516	0.496237	0.184323	0	-0.213081	-0.127554	-0.449016	-0.35603	-0.0408367	0.513392	0	-0.0364185	0.255632	-0.178238	-1.09264	-0.139975	-0.420504	2.03712	1.6742	0	0	-0.145101	-0.292034	-0.0752834	2.2684	1.68884	0	0
0.18	-0.264312	-0.155497	-0.0428733	1.09594	0.971295	-0.415452	1.07518	0.124401	-0.26014	-1.16765	0.515781	0.251585	0	-0.234604	-0.124083	-0.404959	-0.357453	-0.11003	0.462191	0	-0.0241578	0.269065	-0.171443	-1.13208	-0.121975	-0.441928	2.06392	1.6517	0	0	-0.132122	-0.300983	-0.0331693	2.27835	1.68401	0	0
0.19	-0.269478	-0.15622	-0.0474591	1.09726	0.974308	-0.416453	1.05559	0.131593	-0.289621	-1.01404	0.534137	0.326897	0	-0.252155	-0.117048	-0.3584	-0.378851	-0.164247	0.412669	0	-0.0194147	0.276113	-0.163168	-1.16035	-0.106913	-0.459003	2.08531	1.63092	0	0	-0.123218	-0.310691	0.00548988	2.28264	1.68028	0	0
0.2	-0.268833	-0.153384	-0.0517236	1.09843	0.976921	-0.417328	1.0221	0.138665	-0.318802	-0.858242	0.549545	0.406011	0	-0.266477	-0.107924	-0.313868	-0.420484	-0.202726	0.365963	0	-0.0224404	0.277493	-0.153384	-1.17677	-0.0961064	-0.471809	2.10126	1.614	0	0	-0.119087	-0.320214	0.0395794	2.28067	1.67739	0	0
0.21	-0.262554	-0.148161	-0.0558823	1.09952	0.979042	-0.418043	0.976723	0.146622	-0.346619	-0.705302	0.559763	0.483778	0	-0.277983	-0.0985118	-0.275645	-0.481596	-0.226417	0.321935	0	-0.032819	0.274379	-0.14203	-1.18141	-0.0906491	-0.480731	2.11201	1.6025	0	0	-0.120236	-0.328567	0.0683188	2.27188	1.67494	0	0
0.22	-0.251326	-0.141792	-0.0601172	1.10057	0.980554	-0.418589	0.922491	0.155894	-0.371994	-0.561325	0.562401	0.554598	0	-0.286659	-0.0906781	-0.247026	-0.560548	-0.237303	0.279771	0	-0.0495038	0.268194	-0.129107	-1.17499	-0.0913501	-0.486277	2.11793	1.59707	0	0	-0.12689	-0.334853	0.0912454	2.25583	1.67245	0	0
0.23	-0.23623	-0.135403	-0.0645116	1.1016	0.981321	-0.418986	0.863263	0.166186	-0.393973	-0.433187	0.555437	0.613032	0	-0.292074	-0.0860609	-0.229784	-0.655001	-0.237584	0.238771	0	-0.0709792	0.260365	-0.114756	-1.15864	-0.0987064	-0.488907	2.11946	1.5974	0	0	-0.138941	-0.338368	0.10815	2.23226	1.66936	0	0
0.24	-0.218585	-0.129842	-0.0690249	1.10256	0.9812	-0.419278	0.803428	0.176469	-0.412015	-0.328095	0.537901	0.654867	0	-0.29347	-0.0857597	-0.223779	-0.762099	-0.229071	0.198683	0	-0.0955045	0.252122	-0.0992713	-1.13369	-0.112904	-0.488895	2.11696	1.60229	0	0	-0.155952	-0.338662	0.118998	2.20106	1.66526	0	0
0.25	-0.199754	-0.125614	-0.0735252	1.10338	0.980073	-0.419518	0.747459	0.1852	-0.426163	-0.252879	0.5104	0.678045	0	-0.28987	-0.0901703	-0.227083	-0.878694	-0.213001	0.159959	0	-0.121381	0.244369	-0.083041	-1.10134	-0.133824	-0.486285	2.11062	1.60987	0	0	-0.17719	-0.335548	0.123876	2.16235	1.66011	0	0
0.26	-0.180987	-0.122914	-0.0778587	1.10393	0.977869	-0.41976	0.69934	0.190747	-0.436998	-0.212977	0.47532	0.683119	0	-0.280178	-0.0990025	-0.236505	-1.00159	-0.190161	0.123823	0	-0.147173	0.237677	-0.0664191	-1.06255	-0.161034	-0.480934	2.10049	1.61801	0	0	-0.201674	-0.329089	0.122996	2.11641	1.65446	0	0
0.27	-0.163322	-0.121735	-0.0819237	1.10405	0.974594	-0.42004	0.661902	0.191957	-0.445173	-0.211167	0.436637	0.672855	0	-0.263264	-0.111465	-0.248331	-1.12777	-0.161142	0.0921248	0	-0.17184	0.232357	-0.0495851	-1.01796	-0.193769	-0.472639	2.08656	1.62467	0	0	-0.228259	-0.319593	0.116747	2.06376	1.64943	0	0
0.28	-0.147506	-0.121985	-0.0857128	1.1036	0.970348	-0.420375	0.636187	0.188628	-0.450764	-0.246426	0.399428	0.65125	0	-0.238084	-0.1265	-0.25901	-1.25443	-0.126548	0.0668828	0	-0.194783	0.22856	-0.0324482	-0.967984	-0.23091	-0.46131	2.06885	1.62838	0	0	-0.25576	-0.307592	0.105756	2.00523	1.64641	0	0
0.29	-0.133973	-0.12354	-0.0893092	1.10248	0.965328	-0.420757	0.621142	0.181637	-0.453073	-0.313547	0.369229	0.622755	0	-0.20381	-0.142978	-0.265679	-1.37904	-0.0871436	0.0497258	0	-0.215791	0.226319	-0.0146405	-0.913009	-0.270987	-0.447134	2.04769	1.62845	0	0	-0.283113	-0.293845	0.0909418	1.9421	1.64663	0	0
0.3	-0.122855	-0.126212	-0.0928446	1.10065	0.959816	-0.421159	0.613815	0.172645	-0.450905	-0.403846	0.351297	0.591759	0	-0.159975	-0.159798	-0.266479	-1.49914	-0.0439075	0.0413741	0	-0.234903	0.225509	0.00438312	-0.853571	-0.312222	-0.43067	2.02389	1.62512	0	0	-0.309559	-0.279332	0.0735186	1.8762	1.65071	0	0
0.31	-0.114029	-0.12962	-0.0964297	1.09818	0.954158	-0.421545	0.610124	0.163416	-0.443151	-0.506978	0.349983	0.562275	0	-0.106574	-0.175857	-0.260638	-1.61229	0.00199644	0.0412549	0	-0.252212	0.225713	0.0251378	-0.790558	-0.352648	-0.412829	1.9989	1.61948	0	0	-0.334834	-0.265237	0.0549113	1.81001	1.65825	0	0
0.32	-0.107238	-0.133119	-0.100085	1.09524	0.948723	-0.421872	0.605558	0.155295	-0.429219	-0.612339	0.36757	0.537441	0	-0.0440778	-0.190065	-0.248397	-1.71597	0.049323	0.0474209	0	-0.26764	0.22615	0.0478583	-0.725272	-0.390292	-0.394716	1.97481	1.61323	0	0	-0.359313	-0.252874	0.0365674	1.74665	1.66778	0	0
0.33	-0.102215	-0.135856	-0.103695	1.09208	0.943856	-0.422092	0.595844	0.148915	-0.409317	-0.710223	0.403428	0.519191	0	0.026594	-0.201467	-0.230836	-1.80769	0.0968465	0.0568254	0	-0.280809	0.225768	0.0724094	-0.659472	-0.423324	-0.377506	1.95422	1.60833	0	0	-0.383959	-0.243578	0.0197957	1.68961	1.67687	0	0
0.34	-0.0988092	-0.136912	-0.107014	1.08902	0.939844	-0.422159	0.577558	0.144184	-0.384418	-0.792703	0.453982	0.508085	0	0.104165	-0.209414	-0.209668	-1.88518	0.14351	0.0660593	0	-0.291007	0.223448	0.0983178	-0.5953	-0.450206	-0.362281	1.94004	1.60654	0	0	-0.410151	-0.23852	0.00557675	1.64243	1.68269	0	0
0.35	-0.0970538	-0.135467	-0.109717	1.08636	0.936882	-0.422035	0.54855	0.140431	-0.356076	-0.854181	0.513435	0.503506	0	0.187119	-0.213651	-0.186963	-1.94653	0.188475	0.0720838	0	-0.297277	0.21821	0.124883	-0.535045	-0.469876	-0.349835	1.93507	1.60904	0	0	-0.439419	-0.238481	-0.0056501	1.60825	1.6827	0	0
0.36	-0.0971601	-0.130902	-0.111513	1.08437	0.935069	-0.421699	0.508085	0.136638	-0.32614	-0.891523	0.574809	0.504003	0	0.273781	-0.214272	-0.164858	-1.99041	0.231097	0.0728074	0	-0.298604	0.209349	0.151325	-0.480779	-0.481938	-0.340446	1.9415	1.61611	0	0	-0.473172	-0.24362	-0.0141619	1.5893	1.67541	0	0
